<?xml version="1.0" standalone="no"?>
<!DOCTYPE svg PUBLIC "-//W3C//DTD SVG 20010904//EN"
 "http://www.w3.org/TR/2001/REC-SVG-20010904/DTD/svg10.dtd">
<svg version="1.0" xmlns="http://www.w3.org/2000/svg"
 width="282.000000pt" height="179.000000pt" viewBox="0 0 282.000000 179.000000"
 preserveAspectRatio="xMidYMid meet">
<metadata>
Created by potrace 1.10, written by Peter Selinger 2001-2011
</metadata>
<g transform="translate(0.000000,179.000000) scale(0.050000,-0.050000)" stroke="none">
<path fill='#ffffff' d="M3891 3438 c-42 -37 -71 -81 -71 -107 0 -44 -8 -46 -235 -57 -129 -6
-334 -26 -455 -43 l-220 -33 -84 -89 c-206 -221 -105 -418 289 -561 171 -63
183 -97 44 -126 -149 -32 -197 -28 -569 48 -434 89 -638 82 -947 -33 -114 -43
-154 -48 -467 -64 -95 -5 -181 -13 -190 -18 -9 -5 -200 -10 -424 -11 -224 -1
-415 -9 -425 -19 -9 -9 16 -15 58 -12 44 3 58 0 35 -8 -28 -9 -4 -19 80 -35
l120 -22 -150 -32 -150 -32 100 -4 c95 -3 97 -5 38 -22 -35 -10 -74 -31 -88
-48 -21 -25 -17 -27 33 -11 31 10 115 22 187 27 129 8 130 8 50 -17 l-80 -26
65 -1 c37 -1 117 16 180 38 134 47 170 50 116 9 -47 -35 64 -21 139 17 21 11
66 23 100 27 33 4 94 20 135 37 43 17 75 21 75 10 0 -11 47 -1 105 22 166 66
205 71 186 26 -23 -58 -52 -489 -38 -565 17 -91 -98 -212 -243 -254 -128 -38
-133 -42 -200 -149 -93 -149 -313 -378 -385 -402 -36 -11 -75 -38 -86 -60 -15
-29 -42 -38 -109 -38 -97 0 -132 -33 -159 -148 l-13 -58 89 13 c157 21 363
127 426 218 50 71 467 378 467 343 0 -7 -26 -45 -57 -85 -32 -40 -95 -153
-140 -251 -49 -105 -120 -217 -173 -274 -50 -53 -90 -105 -90 -116 0 -10 -28
-25 -61 -32 -69 -15 -99 -71 -99 -181 0 -123 130 -66 193 85 19 45 52 78 96
97 52 21 80 54 117 136 49 108 175 245 421 460 64 56 139 141 167 188 73 124
312 312 478 376 210 81 309 74 598 -40 132 -52 357 -131 500 -176 143 -45 264
-85 268 -88 5 -4 -33 -60 -83 -125 -52 -66 -114 -180 -143 -260 -30 -82 -93
-197 -150 -271 -54 -71 -104 -155 -111 -188 -8 -33 -26 -71 -42 -84 -46 -38
-34 -91 34 -148 88 -75 108 -58 102 88 -4 109 2 133 45 185 28 32 50 71 50 85
0 14 15 38 33 54 19 15 81 99 138 187 161 249 489 530 619 530 33 0 89 8 124
18 60 18 67 14 152 -95 72 -91 215 -241 434 -453 11 -11 68 -87 125 -170 67
-96 140 -172 200 -210 74 -47 94 -72 95 -114 0 -66 13 -75 143 -90 l103 -12
-47 83 c-26 46 -71 100 -100 119 -96 61 -352 351 -419 474 -37 66 -82 138
-101 160 -137 158 -304 510 -283 595 12 47 28 152 35 234 12 147 13 150 106
230 51 44 148 132 215 196 67 63 126 110 132 104 6 -6 72 -28 146 -49 89 -26
146 -54 167 -84 77 -114 191 -198 251 -187 180 34 161 115 -125 541 -104 154
-190 294 -192 310 -10 84 -59 220 -79 220 -12 0 -47 -40 -76 -90 -50 -81 -60
-88 -115 -77 -39 8 -61 4 -61 -11 0 -15 -26 -18 -80 -10 -57 9 -80 6 -80 -12
0 -18 -24 -21 -90 -11 -96 14 -111 3 -55 -43 37 -30 24 -29 -158 6 -43 9 -58
5 -48 -10 7 -12 26 -22 42 -22 16 0 29 -9 29 -20 0 -11 -28 -20 -61 -20 -36 0
-56 -8 -49 -20 8 -12 -25 -21 -84 -23 -54 -1 -74 -6 -46 -11 98 -18 76 -36
-49 -42 -113 -5 -131 -1 -159 40 -36 50 -43 147 -12 166 11 7 20 33 20 59 0
68 43 96 109 71 72 -27 121 1 172 102 34 67 48 78 85 66 37 -12 40 -9 18 17
-13 16 -19 45 -12 63 8 22 -14 59 -67 112 -104 104 -190 109 -294 18z m-300
-748 c17 -39 47 -88 69 -110 43 -43 40 -48 -62 -75 -67 -19 -71 -17 -63 24 6
33 -15 65 -85 127 l-93 81 77 8 c42 5 88 10 102 12 14 1 39 -29 55 -67z"/>
</g>
</svg>
